<svg id="white_horizontal" data-name="white_horizontal" xmlns="http://www.w3.org/2000/svg" viewBox="0 0 404.92 98.15"><defs><style>.cls-1{fill:#fff;}.cls-2{fill:#77db89;}</style></defs><path class="cls-1" d="M173.15,28.5l-17.4,41.15H142.11L124.71,28.5h14.93l9.82,24,10-24Z"/><path class="cls-1" d="M201.07,62.48H185.43l-2.76,7.17H168.56l18-41.15h13.64l18,41.15H203.83Zm-3.82-10-4-10.34-4,10.34Z"/><path class="cls-1" d="M227.29,39.26h-12V28.5h38V39.26H241.16V69.65H227.29Z"/><path class="cls-1" d="M274.43,59.3h-3.77V69.65H256.79V28.5H276.6a24.33,24.33,0,0,1,9.93,1.88A14.23,14.23,0,0,1,295.35,44a14.46,14.46,0,0,1-2,7.7A14,14,0,0,1,287.59,57l8.64,12.7H281.42ZM280,40.46a6.18,6.18,0,0,0-4.23-1.26h-5.06v9.64h5.06A6.18,6.18,0,0,0,280,47.58,4.55,4.55,0,0,0,281.36,44,4.55,4.55,0,0,0,280,40.46Z"/><path class="cls-1" d="M300.61,68.09a7.33,7.33,0,0,1-2.2-5.5,7.13,7.13,0,0,1,2.2-5.43,8.43,8.43,0,0,1,11.11,0,7.14,7.14,0,0,1,2.21,5.43,7.34,7.34,0,0,1-2.21,5.5,8.25,8.25,0,0,1-11.11,0Z"/><path class="cls-1" d="M326.8,67.86a20.45,20.45,0,0,1-8.2-7.65,21.06,21.06,0,0,1-3-11.13,21.07,21.07,0,0,1,3-11.14,20.51,20.51,0,0,1,8.2-7.65,25,25,0,0,1,11.75-2.73,25.8,25.8,0,0,1,10.7,2.12A19.87,19.87,0,0,1,357,35.79l-8.76,7.82q-3.83-4.81-9-4.82a9.21,9.21,0,0,0-7,2.79,10.46,10.46,0,0,0-2.64,7.5,10.46,10.46,0,0,0,2.64,7.49,9.21,9.21,0,0,0,7,2.79q5.17,0,9-4.82L357,62.36a19.87,19.87,0,0,1-7.76,6.11,25.8,25.8,0,0,1-10.7,2.12A25,25,0,0,1,326.8,67.86Z"/><path class="cls-1" d="M369.77,67.83a20.64,20.64,0,0,1-11.29-18.75,20.64,20.64,0,0,1,11.29-18.76,27.16,27.16,0,0,1,23.86,0,20.64,20.64,0,0,1,11.29,18.76,20.64,20.64,0,0,1-11.29,18.75,27.16,27.16,0,0,1-23.86,0Zm16.6-9.73a9,9,0,0,0,3.32-3.59,11.45,11.45,0,0,0,1.24-5.43,11.46,11.46,0,0,0-1.24-5.44,9.08,9.08,0,0,0-3.32-3.59,9.28,9.28,0,0,0-9.34,0,9.1,9.1,0,0,0-3.33,3.59,11.46,11.46,0,0,0-1.23,5.44,11.45,11.45,0,0,0,1.23,5.43A9,9,0,0,0,377,58.1a9.28,9.28,0,0,0,9.34,0Z"/><path class="cls-2" d="M48.72,28.24c-11.53,0-21.46,9.33-20.83,20.84.29,5.43,2.82,8.8,5.37,10.41a9.45,9.45,0,0,0,1.15.64,8.29,8.29,0,0,0,1,.41l.38.15a5.89,5.89,0,0,0,.68.21,8.82,8.82,0,0,0,1.57.34,16.6,16.6,0,0,0,12.54-4.07c5.47-4.84,6.92-13.61,3.16-21.3a16.53,16.53,0,0,1,7.56,6.75c4.53,8-.24,16.67-.81,17.71a21,21,0,0,1-12.9,9.51,6.24,6.24,0,0,0,1.14.07,20.84,20.84,0,0,0,0-41.67Z"/><path class="cls-2" d="M98.08,46.63c0-.71-.09-1.41-.15-2.12s-.14-1.39-.24-2.09c0-.35-.1-.69-.16-1s-.06-.43-.1-.65,0-.16-.05-.25c-.09-.51-.19-1-.3-1.51s-.21-1-.34-1.53-.31-1.21-.48-1.81c-.12-.43-.25-.86-.38-1.28s-.37-1.14-.57-1.7c-.14-.4-.29-.79-.44-1.19L94.7,31q-.2-.5-.42-1c-.11-.3-.24-.6-.38-.9s-.28-.62-.43-.93a1.87,1.87,0,0,0-.15-.32c-.2-.42-.41-.85-.62-1.26-.32-.62-.65-1.24-1-1.84-.19-.34-.39-.68-.59-1l-.23-.37-.08-.13c-.17-.28-.35-.56-.53-.84a.07.07,0,0,0,0-.06l-.42-.64-.1-.14c-.12-.18-.24-.37-.37-.55l-.73-1-.22-.31c-.32-.43-.65-.86-1-1.28-.11-.15-.24-.3-.37-.45-.3-.37-.6-.73-.91-1.09A50.08,50.08,0,0,0,81.18,12l-.89-.76-1-.82c-.52-.41-1.06-.81-1.6-1.2s-1-.72-1.54-1.07A49.1,49.1,0,0,0,0,49.07v.29A48.21,48.21,0,0,0,.36,55,49.08,49.08,0,0,0,97.21,58.7s0,0,0,0c.21-1.11.4-2.23.54-3.36l0-.29a48.21,48.21,0,0,0,.36-5.67v-.29C98.14,48.25,98.12,47.44,98.08,46.63Zm-19.71,2.5c0,.4,0,.79,0,1.19s0,.64,0,1a2.64,2.64,0,0,0,0,.28c0,.05,0,.11,0,.16-.06.7-.15,1.38-.26,2.06,0,.28-.09.57-.15.85s-.1.53-.16.8c-.17.77-.37,1.53-.61,2.28-.06.22-.13.43-.2.65s-.15.43-.23.64a25.27,25.27,0,0,1-1.07,2.57c-.09.21-.2.42-.31.63a7.84,7.84,0,0,1-.45.86c-.17.33-.36.67-.56,1s-.39.64-.6,1c-.4.63-.84,1.25-1.3,1.85q-.41.56-.87,1.08a26,26,0,0,1-1.88,2c-.39.39-.79.76-1.21,1.12s-.57.5-.86.73-.64.52-1,.76-.6.44-.91.65A25.81,25.81,0,0,1,63,74.83a26.26,26.26,0,0,1-2.56,1.24c-.44.18-.88.36-1.33.52s-.9.32-1.36.46-.92.28-1.39.4a26.81,26.81,0,0,1-2.86.58c-.4.06-.81.12-1.22.16a29,29,0,0,1-3.24.18c-.38,0-.76,0-1.13,0h-.36c-.42,0-.85,0-1.27-.09s-.73-.07-1.09-.13l-.34,0c-.3,0-.6-.09-.9-.15a4.37,4.37,0,0,1-.5-.09,9.18,9.18,0,0,1-1-.23.45.45,0,0,1-.16,0c-.42-.09-.84-.2-1.25-.33a11.51,11.51,0,0,1-1.18-.36.44.44,0,0,1-.19-.07c-.65-.22-1.29-.47-1.92-.73l-.9-.4c-.29-.13-.57-.26-.85-.41L35.47,75c-.21-.1-.41-.21-.61-.33s-.62-.34-.92-.53-.61-.37-.9-.57-.46-.29-.68-.45l-.31-.22c-.25-.17-.5-.35-.74-.55s-.56-.42-.83-.65-.81-.69-1.2-1l-.38-.36c-.39-.37-.77-.74-1.13-1.13-.12-.12-.24-.25-.35-.38s-.22-.24-.32-.37-.43-.48-.63-.73a1.74,1.74,0,0,1-.18-.22c-.31-.37-.6-.75-.88-1.13l-.61-.87-.09-.13c-.14-.21-.28-.42-.41-.63a28.94,28.94,0,0,1-2.87-5.89c-.12-.34-.23-.68-.34-1a29.29,29.29,0,0,1-1.3-7.6c0-.35,0-.7,0-1.06v-.07a29.3,29.3,0,0,1,58.6,0Z"/></svg>